<svg width="183" height="31" viewBox="0 0 183 31" fill="none" xmlns="http://www.w3.org/2000/svg">
    <path d="M43.3665 16.4244H40.5447C39.7279 16.4244 39.1339 16.2015 38.7626 15.6812C38.5398 15.3097 38.3913 14.7894 38.3913 14.0463V5.64844H33.1934V15.0124C33.1934 16.6474 33.7874 18.0594 34.9755 19.1741C36.1636 20.2889 37.5745 20.8834 39.2824 20.8834H48.5644V5.64844H43.3665V16.4244Z" fill="#00529C"></path>
    <path d="M66.0134 7.95217C64.6025 6.46583 62.8946 5.72266 60.8897 5.72266H51.1621V25.4167H56.3601V10.1074H59.0333C60.0729 10.1074 60.8897 10.4789 61.558 11.1478C62.2263 11.8167 62.5233 12.5598 62.5233 13.4516C62.5233 14.3434 62.1521 15.0866 61.4838 15.6068C60.8154 16.2014 59.9986 16.4243 58.959 16.4243H57.4739V20.8833H60.8154C62.8204 20.8833 64.6025 20.1402 66.0134 18.7281C67.4243 17.2418 68.1668 15.5325 68.1668 13.4516C68.1668 11.2964 67.4243 9.43851 66.0134 7.95217Z" fill="#00529C"></path>
    <path fill-rule="evenodd" clip-rule="evenodd" d="M89.4782 20.8834C88.2159 20.8834 87.102 20.5862 86.211 19.9173C85.3199 19.2485 84.6516 18.2823 84.2803 17.0189V20.9578H79.8249C78.4883 20.9578 77.3002 20.4375 76.2606 19.3228C75.1467 18.208 74.627 16.9446 74.627 15.6069V5.64844H79.7506V14.7151C79.7506 15.3097 79.8992 15.7556 80.1962 16.0528C80.4932 16.3501 81.013 16.4244 81.6071 16.4244H84.206V5.64844H89.404V14.7151C89.404 15.9042 90.0723 16.4987 91.3347 16.4987H93.9336V5.64844H99.1316V20.8834H89.4782Z" fill="#00529C"></path>
    <path fill-rule="evenodd" clip-rule="evenodd" d="M129.355 5.64844C130.617 5.64844 131.731 5.94571 132.622 6.61456C133.513 7.28341 134.181 8.24954 134.552 9.51293V5.64844H139.008C140.344 5.64844 141.533 6.16866 142.572 7.28341C143.686 8.39817 144.206 9.66156 144.206 10.9993V20.8834H139.082V11.8168C139.082 11.2222 138.934 10.7763 138.637 10.479C138.34 10.1818 137.82 10.1075 137.226 10.1075H134.627V20.8834H129.429V11.8911C129.429 10.702 128.76 10.1075 127.498 10.1075H124.899V20.8834H119.701V5.64844H129.355Z" fill="#00529C"></path>
    <path fill-rule="evenodd" clip-rule="evenodd" d="M101.73 5.64844H106.928V14.0463C106.928 14.7894 107.077 15.3097 107.3 15.6812C107.671 16.2015 108.265 16.4244 109.082 16.4244H111.904V5.64844H117.102V20.8834H107.819C106.186 20.8834 104.775 20.2889 103.513 19.1741C102.325 18.0594 101.73 16.6474 101.73 15.0124V5.64844Z" fill="#00529C"></path>
    <path fill-rule="evenodd" clip-rule="evenodd" d="M146.805 1.1875H152.003V16.4225H155.121C156.012 16.4225 156.681 16.1252 157.275 15.4564C157.869 14.7875 158.166 14.0444 158.166 13.1525C158.166 12.2607 157.795 11.5176 157.126 10.923C156.458 10.3285 155.641 10.0312 154.75 10.0312H153.191V5.57221H156.681C158.76 5.57221 160.468 6.31538 161.879 7.80172C163.215 9.21374 163.884 10.9974 163.884 13.0039C163.884 15.0848 163.215 16.8684 161.879 18.3547C160.468 19.9897 158.76 20.7329 156.681 20.7329H146.879V1.1875H146.805Z" fill="#00529C"></path>
    <path fill-rule="evenodd" clip-rule="evenodd" d="M165.963 25.3424L169.379 19.9915C168.117 19.4713 167.151 18.6538 166.335 17.5391C165.444 16.2757 165.072 14.938 165.072 13.3773C165.072 11.5194 165.741 9.73578 167.151 8.17512C168.637 6.54014 170.344 5.72266 172.275 5.72266H182.077V20.9577H176.879V10.1074H174.057C173.166 10.1074 172.349 10.4046 171.681 10.9992C171.013 11.5937 170.716 12.3369 170.716 13.303C170.716 14.2691 171.013 15.0123 171.681 15.6068C172.349 16.2014 173.092 16.4986 173.983 16.4986H176.508L171.755 25.4167H165.963V25.3424Z" fill="#00529C"></path>
    <path fill-rule="evenodd" clip-rule="evenodd" d="M25.6185 0C23.3908 0 21.4601 1.41202 20.6433 3.34427C20.4948 3.71585 20.3463 4.01312 20.3463 4.01312L15.4453 15.5323L10.6187 4.01312C10.6187 4.01312 10.4702 3.71585 10.3216 3.34427C9.50483 1.41202 7.64841 0 5.34646 0C2.37621 0 0 2.37815 0 5.35083V20.8831V30.47L5.34646 27.3487V20.9574V5.42515C5.34646 5.42515 7.12862 9.73554 8.76226 13.4514L10.5444 17.6131C10.5444 17.6131 10.5444 17.6131 10.5444 17.6875L10.6187 17.8361C11.5098 19.694 13.2919 20.9574 15.4453 20.9574C17.5988 20.9574 19.4552 19.694 20.272 17.8361L20.3463 17.6875C20.3463 17.6875 20.3463 17.6875 20.3463 17.6131L22.2769 13.3771C23.8363 9.66122 25.6927 5.35083 25.6927 5.35083V20.8831H31.0392V5.35083C31.0392 2.37815 28.5887 0 25.6185 0Z" fill="#00529C"></path>
  </svg>